<?xml version="1.0" encoding="UTF-8" standalone="no"?>
<svg
   version="1.1"
   width="640"
   height="640"
   viewBox="0 0 639.99996 639.99999"
   xml:space="preserve"
   id="svg8"
   sodipodi:docname="drawnui_nt.svg"
   inkscape:version="1.4.2 (f4327f4, 2025-05-13)"
   inkscape:export-filename="drawnui38.png"
   inkscape:export-xdpi="5.6999998"
   inkscape:export-ydpi="5.6999998"
   xmlns:inkscape="http://www.inkscape.org/namespaces/inkscape"
   xmlns:sodipodi="http://sodipodi.sourceforge.net/DTD/sodipodi-0.dtd"
   xmlns="http://www.w3.org/2000/svg"
   xmlns:svg="http://www.w3.org/2000/svg"><sodipodi:namedview
   id="namedview8"
   pagecolor="#212529"
   bordercolor="#000000"
   borderopacity="0.25"
   inkscape:showpageshadow="2"
   inkscape:pageopacity="0.0"
   inkscape:pagecheckerboard="0"
   inkscape:deskcolor="#d1d1d1"
   inkscape:zoom="0.40292657"
   inkscape:cx="101.75551"
   inkscape:cy="519.94586"
   inkscape:window-width="3440"
   inkscape:window-height="1369"
   inkscape:window-x="-8"
   inkscape:window-y="-8"
   inkscape:window-maximized="1"
   inkscape:current-layer="svg8"
   inkscape:clip-to-page="true"
   inkscape:export-bgcolor="#212529ff" />
<desc
   id="desc1">Created with Fabric.js 5.3.0</desc>
<defs
   id="defs1">
		
		
		
		
		
		


</defs>
<rect
   style="fill:#ffffff;fill-opacity:0;fill-rule:nonzero;stroke:none;stroke-width:0;stroke-linecap:butt;stroke-linejoin:miter;stroke-miterlimit:4;stroke-dasharray:none;stroke-dashoffset:0"
   paint-order="stroke"
   x="-387.17712"
   y="-186.9306"
   rx="0"
   ry="0"
   width="1280"
   height="1024"
   id="rect1" />

<path
   style="fill:#a6adb8;fill-rule:nonzero;stroke:none;stroke-width:1.02495;stroke-linecap:butt;stroke-linejoin:miter;stroke-miterlimit:4;stroke-dasharray:none;stroke-dashoffset:0;fill-opacity:1"
   paint-order="stroke"
   d="M 495.82946,121.01231 C 494.08704,100.34942 480.95748,81.562137 461.22727,74.295299 429.53595,62.826151 390.09603,71.281957 358.78394,79.891474 296.76444,98.566025 237.71724,127.5925 186.7672,167.76015 c 2.03964,0.041 3.91531,0.0819 5.35019,0.11273 5.42201,0.0922 14.20581,4.89921 17.79312,15.36393 25.7056,-19.80196 54.14786,-36.49831 83.20512,-50.76555 37.22606,-17.82383 76.55323,-33.003283 117.57154,-38.271516 9.95225,-1.1582 19.9045,-1.53742 29.10849,-0.37923 6.63138,0.871183 12.66833,2.316388 18.15183,5.51422 26.15659,16.860376 11.19239,56.454046 0.48169,79.546056 -22.86655,46.99382 -56.22853,88.50414 -90.74871,127.62632 -14.05204,15.90712 -28.3705,30.23591 -44.61594,43.74469 -31.91684,26.7716 -66.58047,51.75979 -103.41703,71.06974 -9.16303,4.74551 -18.51053,9.06056 -27.88882,12.25838 -7.7076,2.48036 -23.15355,7.22586 -29.48771,1.46567 -5.24773,-6.53916 9.21426,-31.03534 13.4678,-38.44574 13.15008,-22.68207 29.43643,-45.30258 39.93193,-70.18831 6.7339,-16.05062 10.65941,-37.95371 -12.52488,-40.82361 2.51113,0.96345 4.94025,2.09093 7.03112,3.60783 15.3127,10.72096 -3.33107,35.61688 -10.55693,46.68629 -15.01543,21.69815 -33.10575,42.49429 -46.90155,65.82207 -7.36936,13.08853 -16.2044,30.59462 -6.10864,44.91315 18.49001,23.51227 61.17904,4.1305 82.71317,-5.93447 49.01288,-24.83444 93.55706,-56.80251 133.41723,-94.46928 23.1535,-23.16376 44.11366,-48.11098 64.13089,-74.01139 26.33087,-35.21714 52.25174,-72.28942 64.98155,-115.12197 3.20809,-11.63311 5.15551,-23.68648 3.9768,-36.06785 z"
   stroke-linecap="round"
   id="path1"
   sodipodi:nodetypes="cccccccccccccccccccccccccccc" /><g
   transform="matrix(1.0249462,0,0,1.0249462,340.94669,152.02974)"
   id="g2"
   style="paint-order:stroke">
<path
   style="opacity:1;fill:#78549e;fill-rule:nonzero;stroke:none;stroke-width:1;stroke-linecap:butt;stroke-linejoin:miter;stroke-miterlimit:4;stroke-dasharray:none;stroke-dashoffset:0"
   paint-order="stroke"
   transform="translate(-520.43691,-391.48246)"
   d="m 533.08313,404.94823 c -14.26625,13.39798 -31.49323,18.23036 -38.47755,10.79342 -6.98431,-7.43693 -1.08114,-24.32697 13.18511,-37.72495 14.26624,-13.39799 31.49323,-18.23037 38.47754,-10.79343 6.98432,7.43693 1.08114,24.32697 -13.1851,37.72496 z"
   stroke-linecap="round"
   id="path2" />
</g><g
   transform="matrix(1.0249462,0,0,1.0249462,424.3684,145.88006)"
   id="g3"
   style="paint-order:stroke">
<path
   style="opacity:1;fill:#4b8ef9;fill-rule:nonzero;stroke:none;stroke-width:1;stroke-linecap:butt;stroke-linejoin:miter;stroke-miterlimit:4;stroke-dasharray:none;stroke-dashoffset:0"
   paint-order="stroke"
   transform="translate(-601.82821,-385.48246)"
   d="m 614.47443,398.94823 c -14.26625,13.39798 -31.49323,18.23036 -38.47754,10.79342 -6.98432,-7.43693 -1.08114,-24.32697 13.1851,-37.72495 14.26625,-13.39799 31.49323,-18.23037 38.47755,-10.79343 6.98431,7.43693 1.08114,24.32697 -13.18511,37.72496 z"
   stroke-linecap="round"
   id="path3" />
</g><g
   transform="matrix(1.0249462,0,0,1.0249462,385.33131,229.21502)"
   id="g4"
   style="paint-order:stroke">
<path
   style="opacity:1;fill:#e4a130;fill-rule:nonzero;stroke:none;stroke-width:1;stroke-linecap:butt;stroke-linejoin:miter;stroke-miterlimit:4;stroke-dasharray:none;stroke-dashoffset:0"
   paint-order="stroke"
   transform="translate(-563.74125,-466.78913)"
   d="m 576.38747,480.25489 c -14.26624,13.39798 -31.49323,18.23037 -38.47754,10.79343 -6.98431,-7.43694 -1.08114,-24.32698 13.18511,-37.72496 14.26624,-13.39798 31.49323,-18.23036 38.47754,-10.79343 6.98431,7.43694 1.08114,24.32698 -13.18511,37.72496 z"
   stroke-linecap="round"
   id="path4" />
</g><g
   transform="matrix(1.0249462,0,0,1.0249462,324.76475,299.19757)"
   id="g5"
   style="paint-order:stroke;fill:#dee2e6;fill-opacity:1">
<path
   style="opacity:1;fill:#a6adb8;fill-rule:nonzero;stroke:none;stroke-width:1;stroke-linecap:butt;stroke-linejoin:miter;stroke-miterlimit:4;stroke-dasharray:none;stroke-dashoffset:0;fill-opacity:1"
   paint-order="stroke"
   transform="translate(-504.64882,-535.06838)"
   d="M 671.5232,645.18686 526.77973,538.75497 c 7.13403,-10.62494 9.04267,-21.3255 3.86347,-26.83807 -6.02344,-6.4118 -19.67933,-3.68726 -32.4798,5.78967 l -89.57019,-65.85968 -15.02997,21.53998 89.80103,59.466 c -7.55396,10.86988 -9.67548,21.94819 -4.38105,27.58399 6.3758,6.79602 21.30292,3.34967 34.71552,-7.51001 l 151.97449,100.63 c 0.86999,0.57001 1.84997,0.85004 2.82,0.85004 1.60999,0 3.19995,-0.76001 4.19,-2.17999 1.58997,-2.28003 1.07001,-5.40003 -1.16003,-7.04004 z M 483.47321,554.61685 c -3.05999,-3.24896 -1.88696,-10.96014 3.62006,-19.29462 l 13.70001,9.07209 c 1.01734,0.6737 2.34284,0.63946 3.32556,-0.0837 1.54456,-1.1366 3.10981,-2.43451 4.66437,-3.89368 2.35175,-2.20905 4.41559,-4.53662 6.12366,-6.89362 0.92199,-1.27227 0.60748,-3.05877 -0.65839,-3.98956 l -12.36871,-9.09454 c 5.91681,-4.0426 11.98834,-6.40228 16.89343,-6.40228 2.59003,0 4.53003,0.66998 5.78003,2 2.03998,2.16998 2.20996,6.27996 0.45996,11.26995 -2.03998,5.85004 -6.34997,12.06 -12.11999,17.48005 -7.76996,7.29998 -16.82996,11.82995 -23.64997,11.82995 -2.58001,0 -4.53003,-0.66998 -5.77002,-2 z M 377.35322,460.98691 c 0,0 -12.14002,4.82995 -24.35999,-3.70001 -12.23004,-8.53003 -8.78003,-27.88001 -17.30005,-40.32001 14.62006,3.71002 31.59003,-6.19 43.81006,2.33996 12.21997,8.53003 11.87,21.60004 11.87,21.60004 z m 30.67999,-17.17005 -22.21002,31.79999 -10.51996,-2.95996 26.32001,-37.70001 z"
   stroke-linecap="round"
   id="path5"
   sodipodi:nodetypes="ccccccccccsccsccscsccscccsssccccccccccc" />
</g><g
   transform="matrix(1.0249462,0,0,1.0249462,244.72083,364.50791)"
   id="g6"
   style="paint-order:stroke">
<path
   style="opacity:1;fill:#f25536;fill-rule:nonzero;stroke:none;stroke-width:1;stroke-linecap:butt;stroke-linejoin:miter;stroke-miterlimit:4;stroke-dasharray:none;stroke-dashoffset:0"
   paint-order="stroke"
   transform="translate(-426.55309,-598.78913)"
   d="m 438.26035,613.07876 c -15.13909,12.40321 -32.65327,16.06031 -39.11902,8.16836 -6.46574,-7.89194 0.5654,-24.34442 15.7045,-36.74763 15.13909,-12.40321 32.65327,-16.06031 39.11901,-8.16836 6.46574,7.89195 -0.5654,24.34442 -15.70449,36.74763 z"
   stroke-linecap="round"
   id="path6" />
</g><g
   paint-order="stroke"
   id="g8"
   transform="matrix(1.6861069,0,0,1.6861069,320,535.95724)"
   style="fill:#dee2e6;fill-opacity:1">
		<g
   id="text-logo-path-0"
   style="fill:#a6adb8;fill-opacity:1">
<path
   style="opacity:1;fill:#a6adb8;fill-rule:nonzero;stroke:none;stroke-width:0;stroke-linecap:butt;stroke-linejoin:miter;stroke-miterlimit:4;stroke-dasharray:none;stroke-dashoffset:0;fill-opacity:1"
   paint-order="stroke"
   transform="translate(-135.23,20.475)"
   d="m 3.66,-41.42 h 15.52 c 4.36,0 8.173333,0.866667 11.44,2.6 3.266667,1.726667 5.793333,4.153333 7.58,7.28 1.793333,3.126667 2.69,6.736667 2.69,10.83 v 0 c 0,4.053333 -0.896667,7.653333 -2.69,10.8 -1.786667,3.1466667 -4.323333,5.5833333 -7.61,7.31 C 27.31,-0.86666667 23.506667,0 19.18,0 V 0 H 3.66 Z m 10.09,32.69 h 4.78 c 3.813333,0 6.783333,-1.0433333 8.91,-3.13 2.12,-2.086667 3.18,-5.036667 3.18,-8.85 v 0 c 0,-3.813333 -1.06,-6.783333 -3.18,-8.91 -2.126667,-2.12 -5.096667,-3.18 -8.91,-3.18 v 0 H 13.75 Z M 58.7,-32.92 v 5.48 c 1.186667,-1.806667 2.663333,-3.23 4.43,-4.27 1.766667,-1.046667 3.733333,-1.57 5.9,-1.57 v 0 10.68 h -2.77 c -2.52,0 -4.41,0.543333 -5.67,1.63 -1.26,1.08 -1.89,2.976667 -1.89,5.69 v 0 V 0 H 48.62 v -32.92 z m 15.23,16.4 v 0 c 0,-3.38 0.636667,-6.35 1.91,-8.91 1.28,-2.553333 3.023333,-4.52 5.23,-5.9 2.2,-1.373333 4.656667,-2.06 7.37,-2.06 v 0 c 2.32,0 4.356667,0.47 6.11,1.41 1.746667,0.946667 3.093333,2.186667 4.04,3.72 v 0 -4.66 h 10.09 V 0 H 98.59 v -4.66 c -0.986667,1.5333333 -2.353333,2.7733333 -4.1,3.72 C 92.736667,0 90.7,0.47 88.38,0.47 v 0 c -2.673333,0 -5.11,-0.69666667 -7.31,-2.09 -2.206667,-1.4 -3.95,-3.3866667 -5.23,-5.96 -1.273333,-2.58 -1.91,-5.56 -1.91,-8.94 z m 24.66,0.06 v 0 c 0,-2.52 -0.7,-4.506667 -2.1,-5.96 -1.393333,-1.453333 -3.093333,-2.18 -5.1,-2.18 v 0 c -2.006667,0 -3.706667,0.716667 -5.1,2.15 -1.4,1.433333 -2.1,3.41 -2.1,5.93 v 0 c 0,2.52 0.7,4.516667 2.1,5.99 1.393333,1.4733333 3.093333,2.21 5.1,2.21 v 0 c 2.006667,0 3.706667,-0.7266667 5.1,-2.18 1.4,-1.46 2.1,-3.446667 2.1,-5.96 z m 57.23,-16.46 h 9.5 L 156.41,0 H 145.26 L 140.07,-21.36 134.7,0 h -11.09 l -8.97,-32.92 h 10.09 l 4.66,23.54 5.54,-23.54 h 10.68 l 5.61,23.42 z m 35.46,-0.36 v 0 c 3.85333,0 6.93,1.25 9.23,3.75 2.3,2.5 3.45,5.933333 3.45,10.3 v 0 V 0 h -10.03 v -17.88 c 0,-2.2 -0.57,-3.91 -1.71,-5.13 -1.14,-1.22 -2.67333,-1.83 -4.6,-1.83 v 0 c -1.92667,0 -3.46,0.61 -4.6,1.83 -1.14,1.22 -1.71,2.93 -1.71,5.13 v 0 V 0 h -10.09 v -32.92 h 10.09 v 4.36 c 1.02,-1.453333 2.39667,-2.603333 4.13,-3.45 1.72667,-0.846667 3.67333,-1.27 5.84,-1.27 z m 21.59,-8.14 h 10.09 v 24.78 c 0,2.48 0.61,4.386667 1.83,5.72 1.22,1.34 3.01,2.01 5.37,2.01 v 0 c 2.36,0 4.17,-0.67 5.43,-2.01 1.26,-1.333333 1.89,-3.24 1.89,-5.72 v 0 -24.78 h 10.08 v 24.72 c 0,3.7 -0.78667,6.8266667 -2.36,9.38 -1.57333,2.56 -3.68667,4.49 -6.34,5.79 -2.65333,1.29333333 -5.61333,1.94 -8.88,1.94 v 0 c -3.26,0 -6.18,-0.63666667 -8.76,-1.91 -2.57333,-1.28 -4.61,-3.21 -6.11,-5.79 -1.49333,-2.5733333 -2.24,-5.71 -2.24,-9.41 v 0 z m 43.84,0 H 266.8 V 0 h -10.09 z"
   stroke-linecap="round"
   id="path7"
   sodipodi:nodetypes="csccssccsccccscsscsccccccsccscscccccssccsscscccccccssccssscsscsscsscsccccccccccccccsssscccsssssscccccccsccscsscscccsccssccsccccccc" />
</g>
</g>
</svg>
